<svg width="237" height="23" viewBox="0 0 237 23" fill="none" xmlns="http://www.w3.org/2000/svg">
<g id="NORDIC ROSE">
<path d="M0.838329 19H9.26233V18.558L6.55833 18.22C5.77833 18.116 5.20633 17.518 5.20633 16.712V4.25803L15.9183 19H17.0883V3.03603C17.0883 2.25603 17.6343 1.60603 18.4143 1.50203L20.3903 1.24203V0.800034H11.9663V1.24203L14.6703 1.58004C15.4503 1.68404 16.0223 2.28203 16.0223 3.08803V14.684L8.24833 3.76403C6.09033 0.748034 3.95833 0.800034 0.318329 0.800034V1.24203C1.90433 1.47603 3.46433 2.07403 4.14033 3.27003V16.764C4.14033 17.544 3.59433 18.194 2.81433 18.298L0.838329 18.558V19Z" fill="white"/>
<path d="M35.047 19.416C40.663 19.416 44.745 15.568 44.745 9.90003C44.745 4.23204 40.663 0.410034 35.047 0.410034C29.431 0.410034 25.323 4.23204 25.323 9.90003C25.323 15.568 29.431 19.416 35.047 19.416ZM35.073 18.506C30.393 18.506 28.495 14.372 28.495 9.30204C28.495 4.57004 30.497 1.32003 35.021 1.32003C39.597 1.32003 41.547 5.37603 41.547 10.29C41.547 15.178 39.779 18.506 35.073 18.506Z" fill="white"/>
<path d="M58.5988 10.212H58.8068C61.4848 17.622 66.2688 20.95 68.8948 22.588C65.2028 17.544 63.4608 14.216 61.7968 9.97804C64.9428 9.40604 66.5807 7.92403 66.5807 5.37603C66.5807 2.10003 63.7208 0.800034 58.3388 0.800034H50.2008V1.24203L51.8647 1.45004C52.6447 1.55404 53.2168 2.15204 53.2168 2.95803V16.842C53.2168 17.648 52.6447 18.246 51.8647 18.35L50.2008 18.558V19H59.2488V18.558L57.5848 18.35C56.8048 18.246 56.2327 17.648 56.2327 16.842V10.212H58.5988ZM56.2327 1.71003H58.9888C62.4207 1.71003 63.8248 2.93203 63.8248 5.50603C63.8248 8.08003 62.2388 9.30204 58.5728 9.30204H56.2327V1.71003Z" fill="white"/>
<path d="M73.8343 19H82.7263C89.1743 19 93.3083 15.724 93.3083 9.95203C93.3083 3.89403 89.1743 0.800034 82.7263 0.800034H73.8343V1.24203L75.4983 1.45004C76.2783 1.55404 76.8503 2.15204 76.8503 2.95803V16.842C76.8503 17.648 76.2783 18.246 75.4983 18.35L73.8343 18.558V19ZM81.2183 18.09C80.4383 18.09 79.8663 17.648 79.8663 16.842V1.71003H82.3103C86.1583 1.71003 90.1623 3.34803 90.1623 9.95203C90.1623 16.062 86.6263 18.09 82.3103 18.09H81.2183Z" fill="white"/>
<path d="M99.0168 19H108.065V18.558L106.401 18.35C105.621 18.246 105.049 17.648 105.049 16.842V2.95803C105.049 2.15204 105.621 1.55404 106.401 1.45004L108.065 1.24203V0.800034H99.0168V1.24203L100.681 1.45004C101.461 1.55404 102.033 2.15204 102.033 2.95803V16.842C102.033 17.648 101.461 18.246 100.681 18.35L99.0168 18.558V19Z" fill="white"/>
<path d="M123.5 19.39C126.516 19.39 129.74 18.246 131.846 16.27V14.71C129.818 16.608 127.036 17.57 124.28 17.57C120.302 17.57 117.052 14.788 117.052 9.90003C117.052 4.77803 119.288 1.32003 123.5 1.32003C127.296 1.32003 129.298 4.51803 128.83 10.134H129.532L131.092 3.19203C129.61 1.50203 125.58 0.410034 123.5 0.410034C117.624 0.410034 113.776 4.23204 113.776 9.90003C113.776 15.594 117.676 19.39 123.5 19.39Z" fill="white"/>
<path d="M157.419 10.212H157.627C160.305 17.622 165.089 20.95 167.715 22.588C164.023 17.544 162.281 14.216 160.617 9.97804C163.763 9.40604 165.401 7.92403 165.401 5.37603C165.401 2.10003 162.541 0.800034 157.159 0.800034H149.021V1.24203L150.685 1.45004C151.465 1.55404 152.037 2.15204 152.037 2.95803V16.842C152.037 17.648 151.465 18.246 150.685 18.35L149.021 18.558V19H158.069V18.558L156.405 18.35C155.625 18.246 155.053 17.648 155.053 16.842V10.212H157.419ZM155.053 1.71003H157.809C161.241 1.71003 162.645 2.93203 162.645 5.50603C162.645 8.08003 161.059 9.30204 157.393 9.30204H155.053V1.71003Z" fill="white"/>
<path d="M182.099 19.416C187.715 19.416 191.797 15.568 191.797 9.90003C191.797 4.23204 187.715 0.410034 182.099 0.410034C176.483 0.410034 172.375 4.23204 172.375 9.90003C172.375 15.568 176.483 19.416 182.099 19.416ZM182.125 18.506C177.445 18.506 175.547 14.372 175.547 9.30204C175.547 4.57004 177.549 1.32003 182.073 1.32003C186.649 1.32003 188.599 5.37603 188.599 10.29C188.599 15.178 186.831 18.506 182.125 18.506Z" fill="white"/>
<path d="M205.899 19.39C209.799 19.39 212.555 17.414 212.555 14.554C212.555 7.37804 201.973 8.10603 201.973 4.51803C201.973 2.67203 203.663 1.32003 206.445 1.32003C209.383 1.32003 210.761 3.27003 211.047 7.56003H211.749L212.009 1.65803C210.475 0.982035 208.525 0.410034 206.445 0.410034C202.389 0.410034 199.867 2.23003 199.867 4.77803C199.867 11.772 210.475 10.784 210.475 14.944C210.475 17.024 208.551 18.48 206.159 18.48C203.065 18.48 201.505 16.348 200.933 11.538H200.231L199.711 17.7C201.505 18.688 203.169 19.39 205.899 19.39Z" fill="white"/>
<path d="M219.059 19H235.907L236.687 12.864H236.245C234.659 16.972 233.281 18.09 230.967 18.09H226.443C225.663 18.09 225.091 17.648 225.091 16.842V10.212H231.097C231.799 10.212 232.501 10.706 232.553 11.382L232.839 14.424H233.281V5.35003H232.839L232.553 8.13204C232.475 8.83403 231.799 9.30204 231.097 9.30204H225.091V1.71003H230.447C232.371 1.71003 234.321 2.62003 235.361 6.96203H235.803L235.283 0.800034H219.059V1.24203L220.723 1.45004C221.503 1.55404 222.075 2.15204 222.075 2.95803V16.842C222.075 17.648 221.503 18.246 220.723 18.35L219.059 18.558V19Z" fill="white"/>
</g>
</svg>
