<svg width="217" height="20" viewBox="0 0 217 20" fill="none" xmlns="http://www.w3.org/2000/svg">
<g id="NORDIC ROSE">
<path d="M0.477391 16.7644H8.21112V16.3658L5.72869 16.061C5.0126 15.9672 4.48747 15.4279 4.48747 14.7011V3.47011L14.3217 16.7644H15.3959V2.36811C15.3959 1.66471 15.8971 1.07855 16.6132 0.98476L18.4273 0.750293V0.3517H10.6936V0.750293L13.176 1.0551C13.8921 1.14889 14.4172 1.68816 14.4172 2.41501V12.8722L7.28021 3.02462C5.29904 0.304807 3.34174 0.3517 0 0.3517V0.750293C1.45604 0.961313 2.88821 1.50059 3.50882 2.57913V14.7479C3.50882 15.4513 3.00756 16.0375 2.29148 16.1313L0.477391 16.3658V16.7644Z" fill="black"/>
<path d="M31.883 17.1395C37.0388 17.1395 40.7863 13.6694 40.7863 8.55803C40.7863 3.44666 37.0388 0 31.883 0C26.7272 0 22.9558 3.44666 22.9558 8.55803C22.9558 13.6694 26.7272 17.1395 31.883 17.1395ZM31.9069 16.3189C27.6103 16.3189 25.8679 12.5909 25.8679 8.01876C25.8679 3.75147 27.7058 0.820634 31.8591 0.820634C36.0602 0.820634 37.8504 4.47831 37.8504 8.90973C37.8504 13.3177 36.2272 16.3189 31.9069 16.3189Z" fill="black"/>
<path d="M53.5049 8.83939H53.6958C56.1544 15.5217 60.5464 18.5229 62.9572 20C59.5677 15.4513 57.9685 12.4502 56.4408 8.62837C59.329 8.11254 60.8328 6.77608 60.8328 4.47831C60.8328 1.52403 58.2072 0.3517 53.2662 0.3517H45.795V0.750293L47.3227 0.937867C48.0387 1.03165 48.5639 1.57093 48.5639 2.29777V14.8183C48.5639 15.5451 48.0387 16.0844 47.3227 16.1782L45.795 16.3658V16.7644H54.1016V16.3658L52.574 16.1782C51.8579 16.0844 51.3327 15.5451 51.3327 14.8183V8.83939H53.5049ZM51.3327 1.17233H53.8629C57.0137 1.17233 58.3026 2.27433 58.3026 4.59554C58.3026 6.91676 56.8466 8.01876 53.481 8.01876H51.3327V1.17233Z" fill="black"/>
<path d="M67.492 16.7644H75.6554C81.5751 16.7644 85.3703 13.8101 85.3703 8.60492C85.3703 3.14185 81.5751 0.3517 75.6554 0.3517H67.492V0.750293L69.0197 0.937867C69.7358 1.03165 70.2609 1.57093 70.2609 2.29777V14.8183C70.2609 15.5451 69.7358 16.0844 69.0197 16.1782L67.492 16.3658V16.7644ZM74.271 15.9437C73.5549 15.9437 73.0298 15.5451 73.0298 14.8183V1.17233H75.2735C78.8062 1.17233 82.4821 2.64947 82.4821 8.60492C82.4821 14.1149 79.2359 15.9437 75.2735 15.9437H74.271Z" fill="black"/>
<path d="M90.611 16.7644H98.9176V16.3658L97.3899 16.1782C96.6739 16.0844 96.1487 15.5451 96.1487 14.8183V2.29777C96.1487 1.57093 96.6739 1.03165 97.3899 0.937867L98.9176 0.750293V0.3517H90.611V0.750293L92.1386 0.937867C92.8547 1.03165 93.3799 1.57093 93.3799 2.29777V14.8183C93.3799 15.5451 92.8547 16.0844 92.1386 16.1782L90.611 16.3658V16.7644Z" fill="black"/>
<path d="M113.088 17.1161C115.857 17.1161 118.817 16.0844 120.75 14.3025V12.8957C118.888 14.6073 116.334 15.4748 113.804 15.4748C110.152 15.4748 107.168 12.966 107.168 8.55803C107.168 3.93904 109.221 0.820634 113.088 0.820634C116.573 0.820634 118.411 3.70457 117.981 8.76905H118.626L120.058 2.50879C118.697 0.98476 114.997 0 113.088 0C107.693 0 104.161 3.44666 104.161 8.55803C104.161 13.6928 107.741 17.1161 113.088 17.1161Z" fill="black"/>
<path d="M144.228 8.83939H144.419C146.877 15.5217 151.269 18.5229 153.68 20C150.291 15.4513 148.691 12.4502 147.164 8.62837C150.052 8.11254 151.556 6.77608 151.556 4.47831C151.556 1.52403 148.93 0.3517 143.989 0.3517H136.518V0.750293L138.046 0.937867C138.762 1.03165 139.287 1.57093 139.287 2.29777V14.8183C139.287 15.5451 138.762 16.0844 138.046 16.1782L136.518 16.3658V16.7644H144.824V16.3658L143.297 16.1782C142.581 16.0844 142.056 15.5451 142.056 14.8183V8.83939H144.228ZM142.056 1.17233H144.586C147.737 1.17233 149.026 2.27433 149.026 4.59554C149.026 6.91676 147.569 8.01876 144.204 8.01876H142.056V1.17233Z" fill="black"/>
<path d="M166.886 17.1395C172.042 17.1395 175.789 13.6694 175.789 8.55803C175.789 3.44666 172.042 0 166.886 0C161.73 0 157.959 3.44666 157.959 8.55803C157.959 13.6694 161.73 17.1395 166.886 17.1395ZM166.91 16.3189C162.613 16.3189 160.871 12.5909 160.871 8.01876C160.871 3.75147 162.709 0.820634 166.862 0.820634C171.063 0.820634 172.853 4.47831 172.853 8.90973C172.853 13.3177 171.23 16.3189 166.91 16.3189Z" fill="black"/>
<path d="M188.736 17.1161C192.316 17.1161 194.846 15.3341 194.846 12.755C194.846 6.28371 185.131 6.94021 185.131 3.70457C185.131 2.03986 186.683 0.820634 189.237 0.820634C191.934 0.820634 193.199 2.57913 193.462 6.44783H194.106L194.345 1.12544C192.937 0.515827 191.146 0 189.237 0C185.513 0 183.198 1.64127 183.198 3.93904C183.198 10.2462 192.937 9.35522 192.937 13.1067C192.937 14.9824 191.17 16.2954 188.974 16.2954C186.134 16.2954 184.702 14.3728 184.176 10.0352H183.532L183.055 15.592C184.702 16.483 186.229 17.1161 188.736 17.1161Z" fill="black"/>
<path d="M200.816 16.7644H216.284L217 11.2309H216.594C215.138 14.9355 213.873 15.9437 211.749 15.9437H207.595C206.879 15.9437 206.354 15.5451 206.354 14.8183V8.83939H211.868C212.513 8.83939 213.157 9.28488 213.205 9.89449L213.467 12.6377H213.873V4.45487H213.467L213.205 6.96366C213.133 7.59672 212.513 8.01876 211.868 8.01876H206.354V1.17233H211.271C213.038 1.17233 214.828 1.99297 215.783 5.90856H216.188L215.711 0.3517H200.816V0.750293L202.344 0.937867C203.06 1.03165 203.585 1.57093 203.585 2.29777V14.8183C203.585 15.5451 203.06 16.0844 202.344 16.1782L200.816 16.3658V16.7644Z" fill="black"/>
</g>
</svg>
